<svg xmlns="http://www.w3.org/2000/svg" width="502.553" height="586.376"><defs><linearGradient id="a" x1="34.642%" x2="71.468%" y1="87.26%" y2="60.825%"><stop offset="0%" stop-color="#FFCA7C"/><stop offset="50.934%" stop-color="#F098A0"/><stop offset="100%" stop-color="#716DC6"/></linearGradient><linearGradient id="b" x1="28.323%" x2="36.667%" y1="68.342%" y2="19.66%"><stop offset="0%" stop-color="#FFAB83"/><stop offset="49.202%" stop-color="#D885A5"/><stop offset="100%" stop-color="#716DC6"/></linearGradient><linearGradient id="c" x1="105.255%" x2="14.241%" y1="31.37%" y2="75.792%"><stop offset="0%" stop-color="#57B9CE"/><stop offset="100%" stop-color="#6FEACB"/></linearGradient><linearGradient id="d" x1="60.388%" x2="38.853%" y1="64.018%" y2="31.98%"><stop offset="0%" stop-color="#E6B8DB"/><stop offset="100%" stop-color="#FDD8E3"/></linearGradient></defs><g fill="none" fill-rule="nonzero"><path fill="#2C4179" d="M244.378.37a54.124 54.124 0 0 1 5.96-.37c.995 0 1.99.016 2.985.065a53.182 53.182 0 0 1 8.871 1.184 54.094 54.094 0 0 1 5.751 1.603c12.09 4.164 23.383 11.937 34.607 18.047l83.902 46.58c10.16-4.699 37.36-15.065 48.425-13.558 2.442.332 4.311 1.403 5.736 3.428 6.48 9.213 3.356 31.03 1.58 41.332 23.09 14.04 43.461 21.151 54.886 48.485 2.861 6.846 4.435 14.111 5.033 21.492.815 10.055.245 20.508.245 30.603l.01 57.542-.002 60.435c-.003 14.8.4 29.6-1.175 44.338a201.476 201.476 0 0 1-4.744 28.038 200.992 200.992 0 0 1-8.648 27.09 170.676 170.676 0 0 1-4.793 10.99 169.606 169.606 0 0 1-11.853 20.825 168.74 168.74 0 0 1-7 9.733 168.486 168.486 0 0 1-11.745 13.611 168.346 168.346 0 0 1-8.603 8.35 169.116 169.116 0 0 1-13.957 11.333c-10.832 7.748-22.635 14.234-34.15 20.893l-50.866 29.224-43.166 24.89c-9.864 5.673-19.653 11.814-30.14 16.263a66.845 66.845 0 0 1-10.363 2.677c-9.257 1.567-20.503 1.156-29.37-2.11-9.519-3.507-18.55-9.438-27.317-14.517l-37.849-22.009-55.5-32.308c-12.99-7.59-26.308-14.945-38.579-23.67C33.76 463.292 11.193 422.1 3.35 375.69-.48 353.05.195 330.302.174 307.426l-.008-76.953-.012-39.85c-.028-9.262-.624-18.959.723-28.125 1.527-10.388 5.617-19.905 11.732-28.416 5.017-6.984 11.243-13.368 18.351-18.234 11.576-7.925 24.73-14.243 37-21.103l64.51-36.205 62.764-35.067c10.704-5.986 21.413-12.64 32.482-17.899 5.402-2.567 10.776-4.21 16.661-5.204Z"/><path fill="url(#a)" d="M438.144 117.948c17.97 9.917 36.907 18.698 43.602 39.853a55.18 55.18 0 0 1 2.375 13.581c.633 11.036.131 22.347.133 33.414l.013 63.844.006 52.196c-.003 15.357.283 30.71-1.783 45.967-2.647 19.556-8.179 39.095-17.257 56.665-8.962 17.348-21.616 33.76-36.535 46.386-5.826 4.931-12.164 9.38-18.62 13.442-10.125 6.373-20.688 12.14-31.063 18.1l-52.924 30.424-35.178 20.274c-8.986 5.171-18.212 11.408-28.14 14.506-11.22 3.501-24.129 1.01-34.28-4.462-10.389-5.599-20.43-11.909-30.612-17.875l-48.223-27.989c-56.197-32.759-103.279-51.8-123.358-120.2a193.654 193.654 0 0 1-7.268-39.235c-1.108-14.326-.692-28.82-.693-43.183l.004-65.39-.03-50.849c-.005-10.47-.549-21.276.616-31.686.676-6.04 3.037-11.91 5.978-17.19 3.647-6.549 9.288-12.337 15.447-16.558 9.66-6.62 20.478-11.957 30.71-17.659l50.133-28.107 76.107-42.612c11.558-6.469 32.548-19.797 44.075-23.036 6.973-1.96 13.95-1.73 20.846.396 11.85 3.652 27.133 13.646 38.215 19.812l67.06 37.395a488.565 488.565 0 0 0-13.744 8.882c-17.113 13.033-31.943 28.125-45.536 44.772-4.633 5.672-11.736 16.46-16.474 21.06-2.016 2.996-4.149 6.857-7.129 8.99-3.568 2.553-9.338 3.928-13.459 5.65-12.329 5.153-35.742 14.502-45.978 21.96-5.585 4.068-10.123 10.366-14.606 15.611l-18.859 22.172c-3.522 4.162-13.113 13.447-11.79 19.116.44 1.882 1.63 3.461 3.254 4.493 4.143 2.633 43.218-.268 50.924-.749 1.124 5.525 4.168 7.585 8.394 10.885-3.923 4.57-9.924 10.211-9.497 16.7.171 2.596 1.433 4.471 2.887 6.545 7.787 8.085 16.914 14.605 25.295 22.01 3.898 3.116 8.62 7.645 14.006 7.03 6.108-.7 10.788-8.573 14.267-13.07.538.53 1.086 1.048 1.644 1.556 2.696 2.428 4.587 2.79 8.17 2.621a1156.887 1156.887 0 0 0 5.981 41.97c.533 3.2 1.222 7.806 4.135 9.725a7.055 7.055 0 0 0 1.327.694 7.22 7.22 0 0 0 3.683.43c.248-.036.493-.084.735-.146 1.837-.47 3.144-1.84 4.398-3.184 7.487-8.029 13.965-17.714 20.74-26.382 6.462-8.267 15.18-17.659 20.296-26.594 5.672-14.668 7.845-33.708 10.565-49.397.98-5.65 1.456-12.602 3.75-17.834 2.45-5.585 13.36-16.754 17.72-22.833 17.301-24.118 32.288-50.573 41.474-78.889 1.5-4.628 2.762-9.333 4.071-14.018Z"/><path fill="url(#b)" d="M438.144 117.948c17.97 9.917 36.907 18.698 43.602 39.853a55.18 55.18 0 0 1 2.375 13.581c.633 11.036.131 22.347.133 33.414l.013 63.844.006 52.196c-.003 15.357.283 30.71-1.783 45.967-2.647 19.556-8.179 39.095-17.257 56.665-8.962 17.348-21.616 33.76-36.535 46.386-5.826 4.931-12.164 9.38-18.62 13.442-10.125 6.373-20.688 12.14-31.063 18.1l-52.924 30.424-35.178 20.274c-8.986 5.171-18.212 11.408-28.14 14.506-11.22 3.501-24.129 1.01-34.28-4.462-10.389-5.599-20.43-11.909-30.612-17.875l-48.223-27.989c-56.197-32.759-103.279-51.8-123.358-120.2a193.654 193.654 0 0 1-7.268-39.235c-1.108-14.326-.692-28.82-.693-43.183l.004-65.39-.03-50.849c-.005-10.47-.549-21.276.616-31.686.676-6.04 3.037-11.91 5.978-17.19 3.647-6.549 9.288-12.337 15.447-16.558 9.66-6.62 20.478-11.957 30.71-17.659l50.133-28.107 76.107-42.612c11.558-6.469 32.548-19.797 44.075-23.036 6.973-1.96 13.95-1.73 20.846.396 11.85 3.652 27.133 13.646 38.215 19.812l67.06 37.395a488.565 488.565 0 0 0-13.744 8.882c-17.113 13.033-31.943 28.125-45.536 44.772-4.633 5.672-11.736 16.46-16.474 21.06-2.016 2.996-4.149 6.857-7.129 8.99-3.568 2.553-9.338 3.928-13.459 5.65-12.329 5.153-35.742 14.502-45.978 21.96-5.585 4.068-10.123 10.366-14.606 15.611l-18.859 22.172c-3.522 4.162-13.113 13.447-11.79 19.116.44 1.882 1.63 3.461 3.254 4.493 4.143 2.633 43.218-.268 50.924-.749 1.124 5.525 4.168 7.585 8.394 10.885-3.923 4.57-9.924 10.211-9.497 16.7.171 2.596 1.433 4.471 2.887 6.545-4.279 4.434-8.873 8.554-13.4 12.73-50.113 41.487-117.908 84.038-185.246 83.747 4.583 18.424 10.847 36.157 22.134 51.674 12.492 17.913 28.214 30.098 46.413 41.605l91.146 53.092 25.984 15.15c6.077 3.555 12.247 7.626 18.848 10.14 4.635 1.763 11.08 1.898 15.848.737 3.728-.907 7.355-2.7 10.742-4.464 9.366-4.876 18.437-10.539 27.563-15.85l47.621-27.596 37.417-21.589c11.567-6.655 23.431-13.182 34.021-21.352 11.701-9.028 22.848-20.923 30.51-33.649 1.843-2.449 3.452-5.286 4.951-7.958 9.308-16.586 15.185-36.003 17.906-54.789 1.791-12.358 1.424-24.96 1.416-37.41l-.019-45.479.053-69.409c.007-12.497.437-25.167-.119-37.648-.185-4.154-.695-8.754-1.929-12.733-5.056-16.303-19.899-23.552-33.674-31.242 1.5-4.628 2.762-9.333 4.071-14.018Z"/><path fill="#FEFEFE" d="M438.144 117.948c17.97 9.917 36.907 18.698 43.602 39.853a55.18 55.18 0 0 1 2.375 13.581c.633 11.036.131 22.347.133 33.414l.013 63.844.006 52.196c-.003 15.357.283 30.71-1.783 45.967-2.647 19.556-8.179 39.095-17.257 56.665-8.962 17.348-21.616 33.76-36.535 46.386-5.826 4.931-12.164 9.38-18.62 13.442-10.125 6.373-20.688 12.14-31.063 18.1l-52.924 30.424-35.178 20.274c-8.986 5.171-18.212 11.408-28.14 14.506-11.22 3.501-24.129 1.01-34.28-4.462-10.389-5.599-20.43-11.909-30.612-17.875l-48.223-27.989c-56.197-32.759-103.279-51.8-123.358-120.2a193.654 193.654 0 0 1-7.268-39.235c-1.108-14.326-.692-28.82-.693-43.183l.004-65.39-.03-50.849c-.005-10.47-.549-21.276.616-31.686.676-6.04 3.037-11.91 5.978-17.19 3.647-6.549 9.288-12.337 15.447-16.558 9.66-6.62 20.478-11.957 30.71-17.659l50.133-28.107 76.107-42.612c11.558-6.469 32.548-19.797 44.075-23.036 6.973-1.96 13.95-1.73 20.846.396 11.85 3.652 27.133 13.646 38.215 19.812l67.06 37.395a488.565 488.565 0 0 0-13.744 8.882 5222.248 5222.248 0 0 0-54.832-30.82c-11.122-6.258-29.733-18.242-41.117-21.532-4.1-1.185-9.376-.582-13.477.454-3.577.903-7.017 2.647-10.268 4.348-11.735 6.14-23.19 12.977-34.743 19.463l-62.812 35.084-32.835 18.33c-5.31 2.978-11.582 5.812-16.41 9.51-5.409 2.011-10.745 5.681-15.795 8.528-12.705 7.161-28.82 14.236-35.062 28.47-1.905 4.344-2.675 9.974-2.97 14.686-.567 8.982-.149 18.208-.14 27.214l.046 49.168c-.061 23.717.057 47.432.353 71.146.102 10.668-.226 21.42.288 32.074.43 9.264 1.517 18.45 3.26 27.56 4.582 18.423 10.846 36.156 22.133 51.673 12.492 17.913 28.214 30.098 46.413 41.605l91.146 53.092 25.984 15.15c6.077 3.555 12.247 7.626 18.848 10.14 4.635 1.763 11.08 1.898 15.848.737 3.728-.907 7.355-2.7 10.742-4.464 9.366-4.876 18.437-10.539 27.563-15.85l47.621-27.596 37.417-21.589c11.567-6.655 23.431-13.182 34.021-21.352 11.701-9.028 22.848-20.923 30.51-33.649 1.843-2.449 3.452-5.286 4.951-7.958 9.308-16.586 15.185-36.003 17.906-54.789 1.791-12.358 1.424-24.96 1.416-37.41l-.019-45.479.053-69.409c.007-12.497.437-25.167-.119-37.648-.185-4.154-.695-8.754-1.929-12.733-5.056-16.303-19.899-23.552-33.674-31.242 1.5-4.628 2.762-9.333 4.071-14.018Z"/><path fill="#FEFEFE" d="M207.706 95.828c1.266 7.963 2.688 16.037 9.613 21.2 3.686 2.746 8.041 3.996 12.413 5.162-6.254 1.111-12.56 3.023-16.334 8.58-.496.73-1.063 1.62-1.355 2.457-2.566 4.118-3.282 8.777-4.249 13.451-.555-5.528-1.329-10.758-4.625-15.437-4.363-6.195-10.83-8.107-17.902-9.324 7.295-1.564 14.028-3.4 18.352-10.08 3.184-4.919 3.711-10.338 4.087-16.009ZM120.12 175.956c.408.835.308.515.517 1.33.768 2.991 1.63 5.76 3.1 8.488 3.016 5.61 7.772 7.09 13.507 8.77-2.949.846-5.83 1.674-8.425 3.381-5.833 3.837-7.162 9.648-8.457 16.04-.674-3.864-1.296-7.687-3.318-11.12-3.114-5.285-8.365-6.846-13.933-8.28 3.546-.85 6.864-1.749 9.861-3.927 4.943-3.593 6.371-8.938 7.148-14.682ZM405.812 312.932c1.307 10.324 3.374 19.76 12.096 26.51 5.047 3.905 10.812 5.663 17.111 6.272-9.589 2.092-17.63 4.471-23.365 13.287-3.492 5.37-5.2 11.945-5.453 18.31-.774-1.73-.805-3.742-1.236-5.586-1.076-4.603-2.808-9.493-5.378-13.48-5.208-8.08-13.667-10.459-22.473-12.528 5.254-.752 10.284-2.197 14.821-5.02 7.455-4.639 11.003-11.505 12.92-19.736.468-2.673.723-5.327.957-8.029Z"/><path fill="url(#c)" d="M235.887 284.26c7.787 8.084 16.914 14.604 25.295 22.01-6.465 11.84-15.08 22.992-23.044 33.892-36.805 50.375-80.773 98.333-132.35 133.853-18.199-11.507-33.92-23.692-46.413-41.605-11.287-15.517-17.55-33.25-22.134-51.674 67.338.291 135.133-42.26 185.245-83.747 4.528-4.176 9.122-8.296 13.401-12.73Z"/><path fill="#64BDC1" d="m236.383 286.037.416.442c3.034 3.182 9.058 6.908 10.772 10.81-9.122 8.984-18.549 17.694-27.782 26.57-5.138 4.94-9.876 10.293-15.076 15.158-35.283 33.011-75.463 64.687-119.986 84.15-7.597 3.32-17.149 8.185-25.352 9.243-11.287-15.517-17.55-33.25-22.134-51.674 67.338.291 135.133-42.26 185.245-83.747l.871.224c4.24-3.447 8.347-8.533 13.026-11.176Z"/><path fill="#FEFEFE" d="M327.031 406.88c.78 2.667 1.457 5.584 2.813 8.026 2.82 5.078 7.064 6.603 12.334 8.085-2.37.704-4.799 1.36-6.933 2.641-4.99 2.998-6.428 7.557-7.813 12.855l-.207.296c-1.308-2.382-1.15-5.348-2.546-7.803-2.586-4.552-7.017-6.418-11.773-7.882 2.403-.8 5.047-1.53 7.164-2.95 4.78-3.203 5.85-7.989 6.961-13.269Z"/><path fill="#BD9BE6" d="M426.727 67.995c1.616-.54 2.751-1.02 4.42-1.374 1.555 15.04-.896 32.705-5.728 47.044-.546 9.226-5.472 20.04-9.11 28.58-22.318 52.378-60.674 97.41-102.88 134.968-5.029 4.474-10.234 8.743-15.272 13.208-3.89-3.262-7.965-6.427-11.677-9.884-9.499-7.195-18.504-15.153-27.824-22.593l-10.078-8.076c10.84-22.666 22.825-45.257 36.655-66.254a443.917 443.917 0 0 1 28.201-37.86c29.943-36.688 65.582-67.9 113.293-77.759Z"/><path fill="url(#d)" d="M248.578 249.868c10.84-22.666 22.825-45.257 36.655-66.254a443.917 443.917 0 0 1 28.201-37.86c15.264-18.702 33.342-37.562 53.536-51.665 19.422-13.563 40.787-22.634 64.177-27.468l-2.544 1.41c-1.835.956-7.3 3.58-9.837 5.124-8.386 5.105-24.92 13.608-33.357 18.661-33.028 19.78-62.238 57.596-91.148 101.17-7.653 11.535-16.829 27.513-23.663 39.548-3.127 5.508-11.274 17.901-15.044 22.946l-6.976-5.612Z"/><path fill="#8C77C6" d="M286.48 280.537c40.432-32.126 84.685-78.42 112.965-121.644a397.488 397.488 0 0 0 16.952-28.426c2.947-5.398 5.48-11.148 8.737-16.355l.285-.447c-.546 9.226-5.472 20.04-9.11 28.58-22.318 52.378-60.674 97.41-102.88 134.968-5.029 4.474-10.234 8.743-15.272 13.208-3.89-3.262-7.965-6.427-11.677-9.884Z"/><path fill="#2C4179" d="M363.692 126.655a18.912 18.912 0 0 1 1.867-.157 19.951 19.951 0 0 1 1.873.026 18.956 18.956 0 0 1 3.694.598 19.55 19.55 0 0 1 2.656.914 18.889 18.889 0 0 1 3.28 1.802 19.266 19.266 0 0 1 3.507 3.09 19.26 19.26 0 0 1 1.706 2.231 18.82 18.82 0 0 1 1.362 2.456 18.906 18.906 0 0 1 1.232 3.534 18.502 18.502 0 0 1 .352 1.84 19.789 19.789 0 0 1 .17 1.866 19.058 19.058 0 0 1-.373 4.658 19.455 19.455 0 0 1-.763 2.703 19.215 19.215 0 0 1-1.15 2.563 19.241 19.241 0 0 1-7.86 7.814 19.22 19.22 0 0 1-5.277 1.883 19.477 19.477 0 0 1-2.806.345 19.412 19.412 0 0 1-1.89 0 19.434 19.434 0 0 1-2.814-.352 19.169 19.169 0 0 1-5.319-1.917 19.567 19.567 0 0 1-1.618-.977 18.97 18.97 0 0 1-3.56-3.095 19.08 19.08 0 0 1-1.733-2.244 18.735 18.735 0 0 1-1.383-2.474 19.596 19.596 0 0 1-.713-1.75 18.377 18.377 0 0 1-.537-1.814 19.17 19.17 0 0 1 8.985-21.107 19.613 19.613 0 0 1 1.68-.87 18.827 18.827 0 0 1 2.659-.984 19.584 19.584 0 0 1 1.84-.434c.31-.056.62-.106.933-.148Z"/><path fill="#8C77C6" d="M358.09 251.341c-.249 1.941-.556 3.82-1.003 5.726-2.019 10.848-3.842 27.085-8.017 36.963-2.577 6.1-26.768 35.34-32.338 42.593-1.183-7.573-5.239-30.682-4.617-37.213-.11-.798-.257-1.654-.238-2.459.034-1.444 1.044-2.287 2.005-3.236 4.048-3.994 8.687-7.393 12.865-11.258a538.986 538.986 0 0 0 31.342-31.116Z"/><path fill="#46509C" d="M358.09 251.341c-.249 1.941-.556 3.82-1.003 5.726l-.539-.553c-5.85 5.583-11.26 11.64-17.123 17.244-9.019 8.622-18.489 16.837-27.31 25.652-.11-.798-.257-1.654-.238-2.459.034-1.444 1.044-2.287 2.005-3.236 4.048-3.994 8.687-7.393 12.865-11.258a538.986 538.986 0 0 0 31.342-31.116Z"/><path fill="#8C77C6" d="m270.044 182.214.554.253c-.787 2.903-13.386 22.596-16.018 27.288-4.924 8.78-9.362 17.663-13.705 26.747a1486.728 1486.728 0 0 1-41.097 2.387c-.39-.218-.17-.05-.54-.626 5.467-7.324 29.571-35.819 35.484-39.614 4.074-2.615 8.931-4.49 13.335-6.494l21.987-9.94Z"/><path fill="#46509C" d="M247.078 277.946c-.696-.793-.763-.856-.885-1.896 1.292-2.293 3.57-5.742 5.847-7.15 9.097 7.701 17.935 15.865 26.905 23.736-.055 1.443-.875 2.041-1.739 3.151-1.18 1.395-2.61 2.577-3.972 3.793-8.748-7.186-17.576-14.243-26.156-21.634Z"/></g></svg>