<svg xmlns="http://www.w3.org/2000/svg" width="503" height="154"><g fill="none" fill-rule="nonzero"><g fill="#716DC6"><path d="M8.984 153h4.662v-26.476h8.377v-4.136H.607v4.136h8.377zM32.038 153h4.389v-14.886c-.028-2.66-.861-4.535-2.499-5.627-1.638-1.064-3.828-1.582-6.572-1.554-3.247-.056-5.704 1.008-7.37 3.192l3.444 2.624a3.154 3.154 0 0 1 1.554-1.344c.63-.224 1.49-.336 2.582-.336 3.01-.056 4.5.875 4.472 2.793v2.288H25.97c-2.323.028-4.087.658-5.29 1.89-1.204 1.204-1.806 2.723-1.806 4.556 0 1.918.693 3.493 2.078 4.724 1.316 1.26 3.192 1.904 5.627 1.932 1.484 0 2.646-.182 3.486-.546.854-.35 1.483-.896 1.89-1.638h.083V153Zm0-7.664c0 1.638-.343 2.688-1.028 3.15-.756.462-2.051.679-3.885.65-1.455 0-2.498-.286-3.128-.86-.658-.518-.987-1.148-.987-1.89-.028-1.693 1.232-2.568 3.78-2.624h5.248v1.574ZM42.746 146.344l-3.065 3.003c2.841 2.603 6.04 3.905 9.595 3.905 2.618-.028 4.766-.63 6.446-1.806 1.694-1.147 2.554-2.778 2.582-4.892 0-1.805-.468-3.296-1.406-4.472-1.008-1.204-2.646-1.89-4.913-2.058l-3.612-.273c-1.064-.112-1.805-.37-2.225-.776-.462-.364-.68-.791-.651-1.281 0-.77.287-1.4.86-1.89.547-.49 1.505-.735 2.877-.735 1.204 0 2.268.175 3.192.525.937.392 1.826.89 2.666 1.491l2.709-3.17a12.826 12.826 0 0 0-3.612-2.205 13.52 13.52 0 0 0-2.246-.588c-.798-.126-1.701-.189-2.709-.189-2.323 0-4.241.56-5.753 1.68-1.554 1.12-2.344 2.8-2.372 5.039.028 1.862.63 3.31 1.805 4.346 1.148 1.064 2.639 1.68 4.472 1.848l3.864.336c.812.028 1.462.203 1.952.525.476.307.714.853.714 1.637 0 .882-.399 1.568-1.197 2.058-.797.49-1.826.735-3.086.735-2.813 0-5.109-.931-6.887-2.793ZM62.734 153h4.39v-6.278l3.442-3.905L76.361 153h5.501l-8.546-13.29 7.517-8.504h-5.249l-8.377 10.225h-.084v-19.043h-4.389zM94.712 137.694c0 3.5.105 5.865.315 7.097.112.657.252 1.203.42 1.637.181.42.384.861.608 1.323.742 1.414 1.932 2.66 3.57 3.737 1.61 1.12 3.618 1.708 6.026 1.764 2.435-.056 4.465-.644 6.089-1.764 1.61-1.078 2.771-2.323 3.485-3.737.518-.742.875-1.729 1.07-2.96.183-1.232.274-3.598.274-7.097 0-3.555-.091-5.935-.273-7.139-.196-1.204-.553-2.176-1.071-2.918-.714-1.414-1.876-2.674-3.485-3.78-1.624-1.12-3.654-1.693-6.09-1.721-2.407.028-4.416.602-6.025 1.721-1.638 1.106-2.828 2.366-3.57 3.78-.461.742-.804 1.714-1.028 2.918-.21 1.204-.315 3.584-.315 7.139Zm4.66 0c0-3.01.113-5.06.337-6.152.196-1.036.595-1.883 1.197-2.54.49-.63 1.133-1.155 1.931-1.575.784-.406 1.722-.623 2.814-.651 1.105.028 2.064.245 2.876.65.77.42 1.386.946 1.848 1.575.602.658 1.015 1.505 1.239 2.541.21 1.092.314 3.142.314 6.152 0 3.01-.105 5.046-.314 6.11-.224 1.064-.637 1.924-1.24 2.582-.461.63-1.077 1.141-1.847 1.533-.812.462-1.77.693-2.876.693-1.092 0-2.03-.231-2.814-.693-.798-.392-1.442-.903-1.931-1.533-.602-.658-1.001-1.518-1.197-2.582-.224-1.064-.336-3.1-.336-6.11ZM121.587 153h4.388v-13.123c.028-1.595.49-2.75 1.386-3.464.797-.728 1.756-1.092 2.876-1.092.994 0 1.953.364 2.877 1.092l3.19-3.8c-1.3-1.092-2.827-1.652-4.576-1.68-2.338 0-4.227.86-5.67 2.583h-.083v-2.31h-4.388V153ZM150.351 146.596c-1.105 1.484-2.582 2.24-4.43 2.268-3.723.07-5.613-2.177-5.669-6.74.056-4.591 1.946-6.859 5.67-6.803 1.847.056 3.324.82 4.43 2.289l3.233-2.877a11.126 11.126 0 0 0-3.36-2.75c-1.287-.672-2.778-1.022-4.472-1.05-2.575-.028-4.836.833-6.782 2.583-2.015 1.777-3.051 4.647-3.107 8.608.056 3.92 1.092 6.754 3.107 8.503 1.946 1.75 4.207 2.625 6.782 2.625 1.694-.028 3.185-.399 4.472-1.113a11.739 11.739 0 0 0 3.36-2.666l-3.234-2.877ZM156.63 153h4.387v-12.976c0-1.525.413-2.687 1.24-3.485.811-.812 1.847-1.218 3.107-1.218 1.26 0 2.288.406 3.086 1.218.812.798 1.218 1.96 1.218 3.485V153h4.388v-14.487c-.07-2.492-.847-4.381-2.33-5.67-1.498-1.273-3.15-1.91-4.956-1.91-2.337 0-4.227.86-5.669 2.583h-.084v-11.128h-4.388V153ZM196.627 143.762v-3.612c-.028-2.87-.917-5.123-2.667-6.76-1.721-1.61-3.828-2.429-6.32-2.457a9.365 9.365 0 0 0-3.149.567c-1.078.378-2.05.994-2.918 1.848-.854.84-1.554 1.987-2.1 3.443-.546 1.428-.819 3.22-.819 5.375 0 2.24.315 4.06.945 5.459.574 1.456 1.323 2.59 2.246 3.401.476.392.987.721 1.533.987.518.308 1.05.553 1.596.735a11.36 11.36 0 0 0 3.36.504c3.009.028 5.626-1.148 7.852-3.527l-3.17-2.709c-1.4 1.414-2.99 2.12-4.767 2.12-1.525 0-2.757-.461-3.695-1.385-1.008-.91-1.512-2.24-1.512-3.99h13.585Zm-13.585-3.612c.084-1.693.54-2.974 1.365-3.842.84-.826 1.918-1.239 3.233-1.239 1.316 0 2.394.413 3.234 1.24.854.867 1.309 2.148 1.365 3.841h-9.197ZM201.876 146.344l-3.066 3.003c2.842 2.603 6.04 3.905 9.596 3.905 2.617-.028 4.766-.63 6.445-1.806 1.694-1.147 2.555-2.778 2.583-4.892 0-1.805-.47-3.296-1.407-4.472-1.008-1.204-2.645-1.89-4.913-2.058l-3.611-.273c-1.064-.112-1.806-.37-2.226-.776-.462-.364-.679-.791-.65-1.281 0-.77.286-1.4.86-1.89.546-.49 1.505-.735 2.877-.735 1.203 0 2.267.175 3.19.525.939.392 1.828.89 2.667 1.491l2.709-3.17a12.826 12.826 0 0 0-3.611-2.205 13.52 13.52 0 0 0-2.247-.588c-.798-.126-1.7-.189-2.708-.189-2.324 0-4.242.56-5.753 1.68-1.554 1.12-2.345 2.8-2.373 5.039.028 1.862.63 3.31 1.806 4.346 1.147 1.064 2.638 1.68 4.472 1.848l3.863.336c.812.028 1.463.203 1.953.525.476.307.714.853.714 1.637 0 .882-.4 1.568-1.197 2.058-.798.49-1.827.735-3.087.735-2.813 0-5.109-.931-6.886-2.793ZM222.116 131.206h-2.184v3.338h2.184v13.081c0 1.722.504 3.037 1.512 3.947.98.952 2.24 1.428 3.779 1.428h2.289v-4.136h-1.638c-1.064.028-1.582-.511-1.554-1.617v-12.703h3.192v-3.338h-3.192v-6.635h-4.388v6.635ZM233.81 153h4.389v-13.123c.028-1.595.49-2.75 1.386-3.464.798-.728 1.756-1.092 2.876-1.092.994 0 1.953.364 2.877 1.092l3.191-3.8c-1.302-1.092-2.827-1.652-4.577-1.68-2.338 0-4.227.86-5.669 2.583h-.084v-2.31h-4.388V153ZM261.21 153h4.389v-14.886c-.028-2.66-.861-4.535-2.499-5.627-1.637-1.064-3.828-1.582-6.571-1.554-3.248-.056-5.704 1.008-7.37 3.192l3.443 2.624a3.154 3.154 0 0 1 1.554-1.344c.63-.224 1.49-.336 2.583-.336 3.009-.056 4.5.875 4.472 2.793v2.288h-6.068c-2.324.028-4.087.658-5.291 1.89-1.204 1.204-1.806 2.723-1.806 4.556 0 1.918.693 3.493 2.079 4.724 1.316 1.26 3.191 1.904 5.627 1.932 1.483 0 2.645-.182 3.485-.546.854-.35 1.484-.896 1.89-1.638h.084V153Zm0-7.664c0 1.638-.342 2.688-1.028 3.15-.756.462-2.05.679-3.884.65-1.456 0-2.499-.286-3.129-.86-.658-.518-.987-1.148-.987-1.89-.028-1.693 1.232-2.568 3.78-2.624h5.249v1.574ZM271.52 131.206h-2.184v3.338h2.184v13.081c0 1.722.504 3.037 1.511 3.947.98.952 2.24 1.428 3.78 1.428h2.288v-4.136h-1.637c-1.064.028-1.582-.511-1.554-1.617v-12.703h3.191v-3.338h-3.191v-6.635h-4.388v6.635ZM283.34 153h4.389v-21.794h-4.388V153Zm0-26.224h4.389v-4.388h-4.388v4.388ZM292.453 142.082c0 2.296.189 4.045.567 5.25.392 1.203.994 2.246 1.805 3.127.602.686 1.442 1.302 2.52 1.848 1.064.602 2.429.917 4.094.945 1.722-.028 3.115-.343 4.178-.945.574-.252 1.043-.553 1.407-.903a6.813 6.813 0 0 0 1.029-.945 7.475 7.475 0 0 0 1.848-3.128c.35-1.204.525-2.953.525-5.249s-.175-4.06-.525-5.291c-.364-1.204-.98-2.219-1.848-3.044-.574-.728-1.386-1.38-2.436-1.953-1.063-.546-2.456-.833-4.178-.86-1.665.027-3.03.314-4.094.86-1.078.574-1.918 1.225-2.52 1.953-.811.825-1.413 1.84-1.805 3.044-.378 1.232-.567 2.995-.567 5.291Zm13.584.042c0 1.484-.07 2.576-.21 3.275a4.326 4.326 0 0 1-.86 1.89c-.322.42-.798.79-1.428 1.113-.602.308-1.302.462-2.1.462a4.621 4.621 0 0 1-2.057-.462c-.602-.322-1.092-.693-1.47-1.113a5.494 5.494 0 0 1-.819-1.89c-.168-.7-.252-1.805-.252-3.317 0-1.526.084-2.645.252-3.36.168-.685.44-1.287.819-1.805.378-.49.868-.875 1.47-1.155a4.805 4.805 0 0 1 2.057-.44c.798 0 1.498.146 2.1.44.63.28 1.106.665 1.428 1.155.433.518.72 1.12.86 1.806.14.714.21 1.847.21 3.401ZM315.024 153h4.388v-12.976c0-1.525.413-2.687 1.239-3.485.811-.812 1.847-1.218 3.107-1.218 1.26 0 2.289.406 3.086 1.218.812.798 1.218 1.96 1.218 3.485V153h4.388v-14.487c-.07-2.492-.846-4.381-2.33-5.67-1.498-1.273-3.15-1.91-4.955-1.91-2.338 0-4.227.86-5.67 2.583h-.083v-2.31h-4.388V153ZM353.468 126.776h6.697c1.26-.028 2.366.259 3.318.86.63.365 1.12.862 1.47 1.491.335.7.503 1.561.503 2.583 0 1.232-.413 2.352-1.238 3.36-.868 1.035-2.163 1.567-3.885 1.595h-6.865v-9.89ZM348.828 153h4.64v-11.947h7.054c3.15-.056 5.543-1.064 7.18-3.023 1.597-1.862 2.394-3.926 2.394-6.194 0-1.68-.315-3.135-.944-4.367-.602-1.274-1.386-2.254-2.352-2.94-1.148-.91-2.282-1.511-3.401-1.805a17.733 17.733 0 0 0-3.486-.336h-11.086V153ZM373.918 147.709c0 1.918.546 3.282 1.637 4.094 1.036.798 2.352 1.197 3.948 1.197h1.952v-4.136h-1.511c-1.092 0-1.638-.497-1.638-1.491v-24.985h-4.388v25.321ZM396.447 153h4.388v-14.886c-.028-2.66-.861-4.535-2.499-5.627-1.638-1.064-3.828-1.582-6.572-1.554-3.247-.056-5.704 1.008-7.37 3.192l3.444 2.624a3.154 3.154 0 0 1 1.554-1.344c.63-.224 1.49-.336 2.582-.336 3.01-.056 4.5.875 4.473 2.793v2.288h-6.068c-2.324.028-4.088.658-5.291 1.89-1.204 1.204-1.806 2.723-1.806 4.556 0 1.918.693 3.493 2.079 4.724 1.315 1.26 3.191 1.904 5.627 1.932 1.483 0 2.645-.182 3.485-.546.854-.35 1.484-.896 1.89-1.638h.084V153Zm0-7.664c0 1.638-.343 2.688-1.03 3.15-.755.462-2.05.679-3.884.65-1.455 0-2.498-.286-3.128-.86-.658-.518-.987-1.148-.987-1.89-.028-1.693 1.232-2.568 3.78-2.624h5.249v1.574ZM406.756 131.206h-2.184v3.338h2.184v13.081c0 1.722.504 3.037 1.511 3.947.98.952 2.24 1.428 3.78 1.428h2.288v-4.136h-1.637c-1.064.028-1.582-.511-1.554-1.617v-12.703h3.191v-3.338h-3.191v-6.635h-4.388v6.635ZM419.143 153h4.388v-18.456h4.389v-3.338h-4.389v-2.876c-.055-1.246.574-1.848 1.89-1.806h2.499v-4.136h-2.835c-1.693 0-3.1.455-4.22 1.364-1.148.98-1.722 2.506-1.722 4.578v2.876h-2.204v3.338h2.204V153ZM429.326 142.082c0 2.296.19 4.045.567 5.25.392 1.203.994 2.246 1.806 3.127.602.686 1.442 1.302 2.52 1.848 1.063.602 2.428.917 4.094.945 1.721-.028 3.114-.343 4.178-.945.574-.252 1.043-.553 1.407-.903a6.813 6.813 0 0 0 1.029-.945 7.475 7.475 0 0 0 1.847-3.128c.35-1.204.525-2.953.525-5.249s-.175-4.06-.525-5.291c-.364-1.204-.98-2.219-1.847-3.044-.574-.728-1.386-1.38-2.436-1.953-1.064-.546-2.457-.833-4.178-.86-1.666.027-3.03.314-4.094.86-1.078.574-1.918 1.225-2.52 1.953-.812.825-1.414 1.84-1.806 3.044-.378 1.232-.567 2.995-.567 5.291Zm13.585.042c0 1.484-.07 2.576-.21 3.275a4.326 4.326 0 0 1-.86 1.89c-.323.42-.799.79-1.429 1.113-.602.308-1.301.462-2.1.462a4.621 4.621 0 0 1-2.057-.462c-.602-.322-1.092-.693-1.47-1.113a5.494 5.494 0 0 1-.818-1.89c-.168-.7-.252-1.805-.252-3.317 0-1.526.084-2.645.252-3.36.168-.685.44-1.287.818-1.805.378-.49.868-.875 1.47-1.155a4.805 4.805 0 0 1 2.058-.44c.798 0 1.497.146 2.1.44.63.28 1.105.665 1.427 1.155.434.518.721 1.12.86 1.806.14.714.21 1.847.21 3.401ZM451.897 153h4.388v-13.123c.028-1.595.49-2.75 1.386-3.464.798-.728 1.757-1.092 2.877-1.092.993 0 1.952.364 2.876 1.092l3.191-3.8c-1.301-1.092-2.827-1.652-4.577-1.68-2.337 0-4.227.86-5.669 2.583h-.084v-2.31h-4.388V153ZM468.883 153h4.388v-12.976c0-1.525.42-2.687 1.26-3.485.798-.812 1.827-1.218 3.086-1.218 1.26 0 2.296.406 3.108 1.218.798.798 1.197 1.96 1.197 3.485V153h4.388v-12.976c0-1.525.413-2.687 1.239-3.485.811-.812 1.847-1.218 3.107-1.218 1.26 0 2.289.406 3.086 1.218.798.798 1.197 1.96 1.197 3.485V153h4.388v-14.487c-.056-2.492-.825-4.381-2.31-5.67-1.497-1.273-3.149-1.91-4.954-1.91-2.87-.028-5.158.924-6.866 2.856a10.91 10.91 0 0 0-2.499-2.079c-.923-.49-2.141-.749-3.653-.777-2.351 0-4.248.86-5.69 2.583h-.084v-2.31h-4.388V153Z"/></g><g fill="#2C4179"><path d="M24.767 94H.873L33.273.85h21.6L87.273 94H63.378l-4.995-15.93H29.627L24.767 94Zm19.306-62.1-8.64 27.54h17.145L44.072 31.9ZM146.403.85h21.06V94h-18.09l-34.29-51.57V94h-21.06V.85h17.82l34.56 52.245zM218.358 94h-34.696V.85h34.696c11.34 0 20.294 3.15 26.864 9.45 6.57 6.3 9.856 16.425 9.856 30.375v13.5c0 13.86-3.286 23.963-9.856 30.308-6.57 6.345-15.525 9.517-26.864 9.517Zm0-18.63c5.4 0 9.135-1.8 11.204-5.4 2.07-3.6 3.105-8.865 3.105-15.795v-13.5c0-6.93-1.035-12.195-3.105-15.795-2.07-3.6-5.805-5.4-11.204-5.4h-12.286v55.89h12.286ZM269.252.85h58.86v18.63h-36.45v17.01h32.4v18.63h-32.4v20.25h36.45V94h-58.86zM413.702 94h-24.57l-15.524-35.235h-11.61V94h-22.41V.85h35.1c10.98 0 19.597 2.498 25.852 7.493 6.255 4.995 9.382 12.262 9.382 21.802 0 11.97-4.95 20.205-14.85 24.705L413.702 94Zm-51.704-53.865h9.99c5.22 0 9.112-.652 11.677-1.957 2.565-1.305 3.847-3.983 3.847-8.033 0-4.14-1.327-6.952-3.982-8.437-2.655-1.485-6.502-2.228-11.542-2.228h-9.99v20.655ZM439.623 94h-23.895l32.4-93.15h21.6l32.4 93.15h-23.895l-4.995-15.93h-28.755L439.623 94Zm19.305-62.1-8.64 27.54h17.144l-8.505-27.54Z"/></g></g></svg>